HIERARCHY
ROOT newVegas:Hips
{
	OFFSET 0.000000 96.479958 0.000000
	CHANNELS 6 Xposition Yposition Zposition Xrotation Yrotation Zrotation
	JOINT newVegas:Pelvis
	{
		OFFSET 0.000000 0.000000 0.000000
		CHANNELS 3 Xrotation Yrotation Zrotation
		JOINT newVegas:LeftUpLeg
		{
			OFFSET 18.735201 -5.666702 -4.541200
			CHANNELS 3 Xrotation Yrotation Zrotation
			JOINT newVegas:LeftLeg
			{
				OFFSET -0.021200 -31.938179 0.493100
				CHANNELS 3 Xrotation Yrotation Zrotation
				JOINT newVegas:LeftFoot
				{
					OFFSET 0.021200 -31.938179 -4.336299
					CHANNELS 3 Xrotation Yrotation Zrotation
					JOINT newVegas:LeftToeBase
					{
						OFFSET 0.943001 -26.722000 15.023500
						CHANNELS 3 Xrotation Yrotation Zrotation
						End Site
						{
							OFFSET 0.000000 30.670183 0.000000
						}
					}
				}
				JOINT newVegas:Left_PantLeg
				{
					OFFSET 0.663870 -9.044666 -1.108900
					CHANNELS 3 Xrotation Yrotation Zrotation
					End Site
					{
						OFFSET 1.415995 20.635357 0.000000
					}
				}
			}
		}
		JOINT newVegas:RightUpLeg
		{
			OFFSET -18.735201 -5.666702 -4.541200
			CHANNELS 3 Xrotation Yrotation Zrotation
			JOINT newVegas:RightLeg
			{
				OFFSET 0.018946 -31.938133 0.493100
				CHANNELS 3 Xrotation Yrotation Zrotation
				JOINT newVegas:RightFoot
				{
					OFFSET -0.018946 -31.938126 -4.336299
					CHANNELS 3 Xrotation Yrotation Zrotation
					JOINT newVegas:RightToeBase
					{
						OFFSET -0.943001 -26.722004 15.023500
						CHANNELS 3 Xrotation Yrotation Zrotation
						End Site
						{
							OFFSET 0.000000 30.670187 0.000000
						}
					}
				}
				JOINT newVegas:Right_PantLeg
				{
					OFFSET -0.661674 -9.044716 -1.108900
					CHANNELS 3 Xrotation Yrotation Zrotation
					End Site
					{
						OFFSET -1.415958 20.635269 0.000000
					}
				}
			}
		}
	}
	JOINT newVegas:Spine
	{
		OFFSET 0.000000 10.199997 -0.299500
		CHANNELS 3 Xrotation Yrotation Zrotation
		JOINT newVegas:Spine1
		{
			OFFSET 0.000000 11.900002 -1.516600
			CHANNELS 3 Xrotation Yrotation Zrotation
			JOINT newVegas:Spine2
			{
				OFFSET 0.000000 13.600006 -2.842500
				CHANNELS 3 Xrotation Yrotation Zrotation
				JOINT newVegas:Neck
				{
					OFFSET 0.000000 9.624100 -2.890100
					CHANNELS 3 Xrotation Yrotation Zrotation
					JOINT newVegas:Head
					{
						OFFSET 0.000000 14.068802 -1.351900
						CHANNELS 3 Xrotation Yrotation Zrotation
						JOINT newVegas:Hair_Back
						{
							OFFSET 0.000000 3.231903 -17.524799
							CHANNELS 3 Xrotation Yrotation Zrotation
							End Site
							{
								OFFSET 0.000000 19.849884 0.000000
							}
						}
						JOINT newVegas:Hair_Front
						{
							OFFSET 0.000000 31.260406 4.573800
							CHANNELS 3 Xrotation Yrotation Zrotation
							JOINT newVegas:Hair_Front1
							{
								OFFSET 0.000000 2.284103 11.993300
								CHANNELS 3 Xrotation Yrotation Zrotation
								JOINT newVegas:Hair_Front2
								{
									OFFSET 0.000000 2.284103 11.993300
									CHANNELS 3 Xrotation Yrotation Zrotation
									End Site
									{
										OFFSET 0.000000 12.208862 0.000000
									}
								}
							}
						}
						JOINT newVegas:Jowel
						{
							OFFSET 0.000000 -7.458206 6.864100
							CHANNELS 3 Xrotation Yrotation Zrotation
							End Site
							{
								OFFSET 0.000000 19.849884 0.000000
							}
						}
					}
				}
				JOINT newVegas:LeftShoulder
				{
					OFFSET 15.263000 10.923401 -0.547700
					CHANNELS 3 Xrotation Yrotation Zrotation
					JOINT newVegas:LeftArm
					{
						OFFSET 25.438599 -2.830597 -13.032500
						CHANNELS 3 Xrotation Yrotation Zrotation
						JOINT newVegas:LeftForeArm
						{
							OFFSET 29.960503 0.000000 0.000000
							CHANNELS 3 Xrotation Yrotation Zrotation
							JOINT newVegas:LeftHand
							{
								OFFSET 27.849251 0.000000 0.000000
								CHANNELS 3 Xrotation Yrotation Zrotation
								JOINT newVegas:LeftHandThumb1
								{
									OFFSET 4.487587 -3.305161 6.305391
									CHANNELS 3 Xrotation Yrotation Zrotation
									JOINT newVegas:LeftHandThumb2
									{
										OFFSET 5.480453 -3.164139 3.164143
										CHANNELS 3 Xrotation Yrotation Zrotation
										JOINT newVegas:LeftHandThumb3
										{
											OFFSET 5.159721 -2.978973 2.978967
											CHANNELS 3 Xrotation Yrotation Zrotation
											End Site
											{
												OFFSET 2.494507 5.926697 1.738678
											}
										}
									}
								}
								JOINT newVegas:LeftHandIndex1
								{
									OFFSET 18.578728 -0.527832 5.208049
									CHANNELS 3 Xrotation Yrotation Zrotation
									JOINT newVegas:LeftHandIndex2
									{
										OFFSET 3.192009 0.000000 0.000000
										CHANNELS 3 Xrotation Yrotation Zrotation
										JOINT newVegas:LeftHandIndex3
										{
											OFFSET 3.835129 0.000000 0.000000
											CHANNELS 3 Xrotation Yrotation Zrotation
											End Site
											{
												OFFSET -0.034599 3.816971 0.371180
											}
										}
									}
								}
								JOINT newVegas:LeftHandMiddle1
								{
									OFFSET 18.476105 0.000000 0.000000
									CHANNELS 3 Xrotation Yrotation Zrotation
									JOINT newVegas:LeftHandMiddle2
									{
										OFFSET 3.324875 0.000000 0.000000
										CHANNELS 3 Xrotation Yrotation Zrotation
										JOINT newVegas:LeftHandMiddle3
										{
											OFFSET 4.596550 0.000000 0.000000
											CHANNELS 3 Xrotation Yrotation Zrotation
											End Site
											{
												OFFSET 0.057701 4.578827 0.399218
											}
										}
									}
								}
								JOINT newVegas:LeftHandRing1
								{
									OFFSET 17.732719 0.121887 -4.201567
									CHANNELS 3 Xrotation Yrotation Zrotation
									JOINT newVegas:LeftHandRing2
									{
										OFFSET 2.733170 0.000000 0.000000
										CHANNELS 3 Xrotation Yrotation Zrotation
										JOINT newVegas:LeftHandRing3
										{
											OFFSET 3.178268 0.000000 0.000000
											CHANNELS 3 Xrotation Yrotation Zrotation
											End Site
											{
												OFFSET 0.119102 3.170624 0.185394
											}
										}
									}
								}
								JOINT newVegas:LeftHandPinky1
								{
									OFFSET 15.989624 -0.606689 -7.535461
									CHANNELS 3 Xrotation Yrotation Zrotation
									JOINT newVegas:LeftHandPinky2
									{
										OFFSET 2.538986 0.000000 0.000000
										CHANNELS 3 Xrotation Yrotation Zrotation
										JOINT newVegas:LeftHandPinky3
										{
											OFFSET 2.593102 0.000000 0.000000
											CHANNELS 3 Xrotation Yrotation Zrotation
											End Site
											{
												OFFSET -0.150902 2.584198 0.152708
											}
										}
									}
								}
							}
							JOINT newVegas:Left_Sleeve
							{
								OFFSET 0.267448 -0.649796 0.577675
								CHANNELS 3 Xrotation Yrotation Zrotation
								End Site
								{
									OFFSET 0.000000 15.991241 0.000000
								}
							}
							JOINT newVegas:Left_CapeC
							{
								OFFSET 15.715958 -8.608795 -6.935905
								CHANNELS 3 Xrotation Yrotation Zrotation
								JOINT newVegas:Left_CapeC1
								{
									OFFSET 0.000000 -8.688499 0.000000
									CHANNELS 3 Xrotation Yrotation Zrotation
									End Site
									{
										OFFSET 0.000000 8.688499 0.000000
									}
								}
							}
						}
						JOINT newVegas:Left_CapeB
						{
							OFFSET 26.118385 -8.608795 -7.079235
							CHANNELS 3 Xrotation Yrotation Zrotation
							JOINT newVegas:Left_CapeB1
							{
								OFFSET 0.000000 -8.688499 0.000000
								CHANNELS 3 Xrotation Yrotation Zrotation
								End Site
								{
									OFFSET 0.000000 8.688499 0.000000
								}
							}
						}
						JOINT newVegas:Left_CapeA
						{
							OFFSET 5.115639 -8.608795 -10.395809
							CHANNELS 3 Xrotation Yrotation Zrotation
							JOINT newVegas:Left_CapeA1
							{
								OFFSET 0.000000 -8.688499 0.000000
								CHANNELS 3 Xrotation Yrotation Zrotation
								End Site
								{
									OFFSET 0.000000 8.688499 0.000000
								}
							}
						}
					}
				}
				JOINT newVegas:RightShoulder
				{
					OFFSET -15.263000 10.923401 -0.547700
					CHANNELS 3 Xrotation Yrotation Zrotation
					JOINT newVegas:RightArm
					{
						OFFSET -25.438599 -2.830597 -13.032500
						CHANNELS 3 Xrotation Yrotation Zrotation
						JOINT newVegas:RightForeArm
						{
							OFFSET -29.960503 0.000000 0.000000
							CHANNELS 3 Xrotation Yrotation Zrotation
							JOINT newVegas:RightHand
							{
								OFFSET -27.849251 0.000000 0.000000
								CHANNELS 3 Xrotation Yrotation Zrotation
								JOINT newVegas:RightHandThumb1
								{
									OFFSET -4.487587 -3.305161 6.305391
									CHANNELS 3 Xrotation Yrotation Zrotation
									JOINT newVegas:RightHandThumb2
									{
										OFFSET -5.480453 -3.164139 3.164143
										CHANNELS 3 Xrotation Yrotation Zrotation
										JOINT newVegas:RightHandThumb3
										{
											OFFSET -5.159721 -2.978973 2.978967
											CHANNELS 3 Xrotation Yrotation Zrotation
											End Site
											{
												OFFSET -2.494507 5.926697 1.738678
											}
										}
									}
								}
								JOINT newVegas:RightHandIndex1
								{
									OFFSET -18.578728 -0.527832 5.208049
									CHANNELS 3 Xrotation Yrotation Zrotation
									JOINT newVegas:RightHandIndex2
									{
										OFFSET -3.192009 0.000000 0.000000
										CHANNELS 3 Xrotation Yrotation Zrotation
										JOINT newVegas:RightHandIndex3
										{
											OFFSET -3.835129 0.000000 0.000000
											CHANNELS 3 Xrotation Yrotation Zrotation
											End Site
											{
												OFFSET 0.034599 3.816971 0.371180
											}
										}
									}
								}
								JOINT newVegas:RightHandMiddle1
								{
									OFFSET -18.476105 0.000000 0.000000
									CHANNELS 3 Xrotation Yrotation Zrotation
									JOINT newVegas:RightHandMiddle2
									{
										OFFSET -3.324875 0.000000 0.000000
										CHANNELS 3 Xrotation Yrotation Zrotation
										JOINT newVegas:RightHandMiddle3
										{
											OFFSET -4.596550 0.000000 0.000000
											CHANNELS 3 Xrotation Yrotation Zrotation
											End Site
											{
												OFFSET -0.057701 4.578827 0.399218
											}
										}
									}
								}
								JOINT newVegas:RightHandRing1
								{
									OFFSET -17.732719 0.121887 -4.201567
									CHANNELS 3 Xrotation Yrotation Zrotation
									JOINT newVegas:RightHandRing2
									{
										OFFSET -2.733170 0.000000 0.000000
										CHANNELS 3 Xrotation Yrotation Zrotation
										JOINT newVegas:RightHandRing3
										{
											OFFSET -3.178268 0.000000 0.000000
											CHANNELS 3 Xrotation Yrotation Zrotation
											End Site
											{
												OFFSET -0.119102 3.170624 0.185394
											}
										}
									}
								}
								JOINT newVegas:RightHandPinky1
								{
									OFFSET -15.989624 -0.606689 -7.535461
									CHANNELS 3 Xrotation Yrotation Zrotation
									JOINT newVegas:RightHandPinky2
									{
										OFFSET -2.538986 0.000000 0.000000
										CHANNELS 3 Xrotation Yrotation Zrotation
										JOINT newVegas:RightHandPinky3
										{
											OFFSET -2.593102 0.000000 0.000000
											CHANNELS 3 Xrotation Yrotation Zrotation
											End Site
											{
												OFFSET 0.150902 2.584198 0.152708
											}
										}
									}
								}
							}
							JOINT newVegas:Right_CapeC
							{
								OFFSET -15.715958 -8.608795 -6.935905
								CHANNELS 3 Xrotation Yrotation Zrotation
								JOINT newVegas:Right_CapeC1
								{
									OFFSET 0.000000 -8.688499 0.000000
									CHANNELS 3 Xrotation Yrotation Zrotation
									End Site
									{
										OFFSET 0.000000 8.688499 0.000000
									}
								}
							}
							JOINT newVegas:Right_Sleeve
							{
								OFFSET -0.267448 -0.649994 0.577675
								CHANNELS 3 Xrotation Yrotation Zrotation
								End Site
								{
									OFFSET 0.000000 15.991302 0.000000
								}
							}
						}
						JOINT newVegas:Right_CapeA
						{
							OFFSET -5.115540 -8.608795 -10.395824
							CHANNELS 3 Xrotation Yrotation Zrotation
							JOINT newVegas:Right_CapeA1
							{
								OFFSET 0.000000 -8.688499 0.000000
								CHANNELS 3 Xrotation Yrotation Zrotation
								End Site
								{
									OFFSET 0.000000 8.688499 0.000000
								}
							}
						}
						JOINT newVegas:Right_CapeB
						{
							OFFSET -26.118187 -8.608795 -7.079266
							CHANNELS 3 Xrotation Yrotation Zrotation
							JOINT newVegas:Right_CapeB1
							{
								OFFSET 0.000000 -8.688499 0.000000
								CHANNELS 3 Xrotation Yrotation Zrotation
								End Site
								{
									OFFSET 0.000000 8.688499 0.000000
								}
							}
						}
					}
				}
				JOINT newVegas:Left_Collar
				{
					OFFSET 18.625099 8.655502 8.828100
					CHANNELS 3 Xrotation Yrotation Zrotation
					JOINT newVegas:Left_Collar1
					{
						OFFSET 14.783401 10.540405 -1.259500
						CHANNELS 3 Xrotation Yrotation Zrotation
						End Site
						{
							OFFSET 0.000000 18.199875 0.000000
						}
					}
				}
				JOINT newVegas:Collar_Back
				{
					OFFSET 0.000000 15.630707 -20.132601
					CHANNELS 3 Xrotation Yrotation Zrotation
					End Site
					{
						OFFSET 0.000000 22.523010 0.000000
					}
				}
				JOINT newVegas:Left_Peck
				{
					OFFSET 17.239599 -5.132599 25.482599
					CHANNELS 3 Xrotation Yrotation Zrotation
					End Site
					{
						OFFSET 0.000000 22.523010 0.000000
					}
				}
				JOINT newVegas:Right_Peck
				{
					OFFSET -17.239599 -5.132202 25.482599
					CHANNELS 3 Xrotation Yrotation Zrotation
					End Site
					{
						OFFSET 0.000000 22.523010 0.000000
					}
				}
				JOINT newVegas:Right_Collar
				{
					OFFSET -18.625099 8.655792 8.828100
					CHANNELS 3 Xrotation Yrotation Zrotation
					JOINT newVegas:Right_Collar1
					{
						OFFSET -14.783401 10.539993 -1.259500
						CHANNELS 3 Xrotation Yrotation Zrotation
						End Site
						{
							OFFSET 0.000000 18.199631 0.000000
						}
					}
				}
			}
		}
		JOINT newVegas:Belly
		{
			OFFSET 0.000000 -6.540398 9.014299
			CHANNELS 3 Xrotation Yrotation Zrotation
			End Site
			{
				OFFSET 0.000000 11.566666 0.000000
			}
		}
	}
	JOINT newVegas:ElvisFacialAnim_Joint
	{
		OFFSET 1.000000 -95.330101 -8.825800
		CHANNELS 3 Xrotation Yrotation Zrotation
		End Site
		{
			OFFSET 0.000000 35.315800 0.000000
		}
	}
}
MOTION
Frames: 4
Frame Time: 0.033333
-1.371614 19.809654 4.774216 -45.867674 -16.036856 -0.564936 -0.000002 -0.000001 -0.000000 -76.954478 3.711230 43.059746 54.722905 -5.266942 10.075475 -14.822718 -7.045288 12.859906 0.000000 -0.000001 -0.000004 -0.000001 0.000000 0.000001 -67.289494 4.017477 -10.263307 24.358743 1.026851 -10.536420 0.876182 19.378628 8.505414 0.000001 -0.000000 -0.000001 0.000000 0.000001 -0.000000 0.782603 19.783855 -2.725594 29.933266 0.702595 -6.124315 30.439001 -0.987465 -7.338093 2.516074 1.749435 -1.653211 2.516069 1.749437 -1.653209 0.000001 -0.000000 -0.000001 2.516070 1.749433 -1.653216 2.516126 1.749438 -1.653216 -0.000000 0.000001 -0.000000 0.000001 -0.000000 -0.000001 13.123423 8.897961 -13.434444 -0.639823 -33.030040 -35.874561 -0.000019 -52.893736 -0.000025 34.122727 16.748384 50.195542 -3.939230 -5.405528 34.582265 11.306918 -1.848488 -4.598965 -0.000000 -0.000002 -0.000003 14.926265 -0.940077 5.493799 0.033041 0.622038 -6.081655 -0.000000 -0.000001 -0.000000 -1.935448 12.736407 11.050899 0.122094 1.191031 -11.705413 0.000000 0.000002 0.000000 -5.567647 21.212339 17.447735 0.261882 1.733634 -17.178634 0.000000 0.000003 0.000002 -10.166311 25.062259 13.428419 0.013349 0.395677 -3.864031 0.000000 -0.000003 -0.000000 0.000001 0.000003 -0.000001 0.000001 0.000003 -0.000001 0.000000 0.000004 -0.000001 0.000000 -0.000001 0.000001 0.000000 -0.000001 0.000001 0.000000 -0.000001 0.000001 -0.000001 -0.000000 0.000001 -5.972534 41.767491 5.150524 -0.042529 -35.282910 85.260609 0.000001 26.164042 0.000001 32.505062 0.756863 -46.698236 -18.786056 37.310998 1.743811 8.714515 -11.123514 -11.537648 -0.000000 -0.000000 0.000003 7.719461 16.403148 -23.036893 0.101378 -0.967447 11.964021 0.000000 -0.000001 -0.000001 3.169228 7.229351 -19.463346 0.090085 -0.912533 11.275495 0.000000 -0.000003 0.000001 -0.485304 -3.259089 -17.579298 0.100085 -0.961281 11.886822 -0.000001 -0.000003 -0.000002 -7.910394 -18.254719 -20.431643 0.069294 -0.801241 9.885362 -0.000000 0.000003 -0.000000 -0.000001 0.000000 0.000002 -0.000001 -0.000000 0.000000 -0.000001 0.000000 0.000003 -0.000000 0.000001 0.000001 -0.000000 0.000001 0.000003 -0.000000 0.000001 0.000001 -0.000000 0.000001 0.000003 -0.000000 -0.000000 0.000000 -0.000000 -0.000000 0.000000 -0.000000 -0.000000 0.000000 -0.000000 -0.000000 0.000000 -0.000000 -0.000000 0.000000 -0.000000 -0.000000 0.000000 -0.000000 -0.000000 0.000000 -0.000004 0.000001 -0.000001 -0.000002 -0.000001 -0.000000 
-1.394753 19.807114 4.758690 -45.811394 -16.116181 -0.646841 -0.000001 -0.000001 -0.000000 -76.820627 4.055858 42.639737 55.002653 -6.132858 10.764244 -15.687237 -6.417603 12.345349 -0.000001 -0.000001 -0.000002 -0.000000 -0.000001 -0.000003 -67.135753 3.953949 -10.220593 23.891647 0.916496 -10.413630 1.270889 19.423656 8.438728 -0.000001 0.000000 -0.000001 0.000000 0.000001 -0.000001 0.662957 19.654035 -2.515695 29.942600 0.682264 -6.113386 30.448235 -1.001101 -7.323209 2.570885 1.718833 -1.589004 2.570865 1.718833 -1.588991 -0.000002 0.000000 0.000001 2.570902 1.718841 -1.588998 2.570858 1.718825 -1.588989 -0.000001 0.000000 0.000001 -0.000002 0.000000 0.000001 13.102271 8.843498 -13.377761 -0.935800 -33.001046 -36.320542 -0.000013 -52.522423 -0.000019 34.122823 16.591431 50.284607 -3.917779 -5.770616 34.408758 11.333539 -1.781499 -4.705999 0.000001 -0.000000 -0.000003 14.926410 -0.952121 5.433703 0.032472 0.616600 -6.028417 0.000001 -0.000001 -0.000001 -1.942060 12.741284 11.079382 0.122239 1.191731 -11.712198 -0.000001 0.000002 0.000001 -5.578614 21.183354 17.497135 0.264376 1.741678 -17.260909 -0.000000 -0.000001 -0.000001 -10.145435 25.069504 13.507893 0.013449 0.397209 -3.879102 0.000000 0.000000 0.000001 -0.000001 0.000001 -0.000001 -0.000001 0.000001 -0.000001 -0.000002 0.000001 -0.000001 -0.000000 -0.000001 -0.000001 -0.000000 -0.000001 -0.000001 -0.000000 -0.000001 -0.000001 -0.000002 0.000000 -0.000001 -6.077082 41.656135 5.391458 0.025613 -36.163598 85.233104 -0.000000 26.703618 0.000022 33.733519 0.763228 -46.523355 -19.080697 37.160399 1.897659 8.731506 -11.048926 -11.455027 0.000000 -0.000001 0.000001 7.762147 16.328247 -23.260723 0.108340 -0.999727 12.369403 -0.000001 0.000001 -0.000000 3.159282 7.184178 -19.504990 0.089774 -0.910974 11.255957 0.000001 -0.000002 0.000000 -0.501037 -3.288086 -17.723904 0.099959 -0.960706 11.879425 -0.000002 -0.000003 -0.000001 -8.032899 -18.256262 -20.786632 0.069462 -0.802206 9.897470 0.000000 0.000002 -0.000001 0.000000 0.000000 0.000001 0.000000 -0.000000 0.000002 0.000001 0.000000 0.000001 -0.000001 0.000001 0.000001 -0.000001 0.000001 0.000001 -0.000001 0.000001 0.000001 -0.000001 0.000001 0.000001 0.000000 0.000000 0.000002 0.000000 0.000000 0.000002 0.000000 0.000000 0.000002 0.000000 0.000000 0.000002 0.000000 0.000000 0.000002 0.000000 0.000000 0.000002 0.000000 0.000000 0.000002 -0.000000 -0.000000 0.000000 -0.000001 -0.000001 -0.000000 
-1.413463 19.808617 4.747009 -45.779148 -16.167481 -0.694016 0.000001 0.000001 0.000001 -76.590463 4.482831 42.279148 55.143211 -6.442247 11.427231 -16.621310 -6.417774 11.605343 -0.000001 0.000000 -0.000001 -0.000000 0.000000 -0.000002 -67.034065 3.925407 -10.208297 23.587732 0.789804 -10.328163 1.519680 19.450758 8.401854 -0.000001 -0.000000 -0.000001 0.000000 -0.000001 -0.000001 0.541333 19.535314 -2.325810 29.953258 0.663136 -6.095704 30.458805 -1.013353 -7.301414 2.626489 1.690058 -1.517890 2.626472 1.690058 -1.517883 -0.000000 0.000000 -0.000001 2.626439 1.690050 -1.517888 2.626504 1.690078 -1.517886 0.000001 0.000001 -0.000002 -0.000000 0.000000 -0.000002 13.105186 8.753792 -13.423951 -1.141421 -32.946698 -36.562641 0.000018 -52.220604 0.000014 34.121982 16.426456 50.361273 -3.896912 -6.137806 34.234431 11.353970 -1.719008 -4.795597 0.000001 -0.000002 -0.000003 14.927040 -0.962415 5.380981 0.031752 0.609793 -5.961435 0.000001 -0.000002 -0.000000 -1.932475 12.731752 11.040178 0.122317 1.192118 -11.716030 0.000000 0.000002 -0.000000 -5.588156 21.172258 17.530483 0.264416 1.741812 -17.262400 0.000001 -0.000004 0.000002 -10.115097 25.079872 13.565368 0.014130 0.407130 -3.976120 -0.000000 -0.000003 -0.000001 -0.000001 0.000000 -0.000001 -0.000001 0.000000 -0.000001 -0.000002 0.000000 -0.000001 0.000000 -0.000002 -0.000002 0.000000 -0.000001 -0.000002 0.000000 -0.000002 -0.000002 -0.000001 0.000000 -0.000002 -6.172611 41.470064 5.636588 0.106971 -36.925707 85.214765 -0.000002 27.266880 0.000015 34.895378 0.732607 -46.329214 -19.364920 36.964697 2.024261 8.744549 -10.936825 -11.361205 0.000003 -0.000003 0.000001 7.800742 16.251426 -23.475990 0.115428 -1.031506 12.769191 0.000000 0.000000 -0.000000 3.148245 7.137346 -19.543849 0.089460 -0.909406 11.236284 -0.000000 -0.000000 0.000000 -0.517317 -3.318299 -17.867872 0.099834 -0.960130 11.872014 -0.000002 0.000002 0.000001 -8.154366 -18.256667 -21.142364 0.069623 -0.803129 9.908784 0.000000 0.000003 0.000000 -0.000000 0.000002 0.000000 -0.000000 0.000001 0.000000 0.000000 0.000002 -0.000000 0.000000 -0.000001 -0.000001 0.000000 -0.000001 0.000001 0.000000 -0.000001 -0.000001 0.000000 -0.000001 0.000001 0.000001 0.000000 0.000001 0.000001 0.000000 0.000001 0.000001 0.000000 0.000001 0.000001 0.000000 0.000001 0.000001 0.000000 0.000001 0.000001 0.000000 0.000001 0.000001 0.000000 0.000001 0.000001 0.000000 -0.000000 0.000001 0.000001 0.000001 
-1.428585 19.810646 4.747200 -45.766150 -16.193291 -0.704180 0.000002 0.000000 -0.000000 -76.380749 4.772788 42.103236 55.099218 -5.906535 11.957689 -17.457861 -6.719316 10.361346 0.000001 -0.000000 -0.000001 -0.000002 -0.000001 -0.000003 -67.004593 3.931961 -10.217213 23.456577 0.655722 -10.289554 1.645621 19.456837 8.394232 0.000001 0.000000 -0.000001 0.000001 -0.000002 -0.000003 0.451237 19.467735 -2.145560 29.984237 0.655210 -6.068134 30.489773 -1.016071 -7.270654 2.680019 1.663136 -1.440291 2.680019 1.663136 -1.440291 0.000001 -0.000000 -0.000001 2.680018 1.663125 -1.440294 2.680030 1.663132 -1.440288 0.000000 -0.000001 -0.000000 0.000001 -0.000000 -0.000001 13.150878 8.607857 -13.637600 -1.224136 -32.944417 -36.433626 -0.000013 -51.968290 -0.000015 34.073580 16.273653 50.403453 -3.876949 -6.506464 34.059462 11.356482 -1.745029 -4.855614 -0.000000 -0.000001 -0.000004 14.928451 -0.968497 5.336224 0.032533 0.617219 -6.034193 0.000001 0.000000 -0.000001 -1.910432 12.734103 10.929459 0.123199 1.196347 -11.758497 -0.000001 0.000003 -0.000000 -5.581585 21.173590 17.511816 0.265753 1.746111 -17.306381 0.000001 -0.000002 0.000001 -10.105460 25.099975 13.660663 0.015514 0.426508 -4.165829 0.000001 -0.000003 -0.000001 0.000002 -0.000001 0.000003 0.000002 -0.000001 0.000003 0.000001 -0.000001 0.000003 -0.000003 0.000000 0.000000 -0.000003 0.000000 -0.000001 -0.000003 0.000000 0.000000 -0.000004 0.000001 0.000000 -6.265459 41.169221 5.911512 0.175547 -37.599775 85.196945 0.000005 27.863417 0.000003 35.994991 0.690552 -46.149628 -19.634849 36.717734 2.118955 8.755901 -10.783923 -11.255544 0.000002 -0.000002 -0.000006 7.835211 16.172795 -23.682486 0.122633 -1.062781 13.163373 0.000000 -0.000002 -0.000001 3.136060 7.088860 -19.579646 0.089148 -0.907840 11.216438 0.000001 0.000004 -0.000000 -0.534151 -3.349734 -18.010823 0.099711 -0.959540 11.864565 -0.000000 0.000001 -0.000002 -8.273541 -18.256322 -21.497964 0.069770 -0.803958 9.919296 0.000001 0.000003 0.000001 -0.000000 -0.000001 -0.000001 -0.000000 -0.000001 -0.000001 0.000000 -0.000001 -0.000001 0.000000 -0.000001 -0.000002 0.000000 -0.000001 0.000000 0.000000 -0.000001 -0.000002 0.000000 -0.000001 0.000000 0.000001 0.000000 0.000000 0.000001 0.000000 0.000000 0.000001 0.000000 0.000000 0.000001 0.000000 0.000000 0.000001 0.000000 0.000000 0.000001 0.000000 0.000000 0.000001 0.000000 0.000000 -0.000003 -0.000000 0.000000 0.000002 0.000000 -0.000000 
